<svg class="thumb" width="1000" height="1000" viewBox="0,0,600,600" xmlns="http://www.w3.org/2000/svg" xmlns:inkscape="http://www.inkscape.org/namespaces/inkscape" xmlns:sodipodi="http://sodipodi.sourceforge.net/DTD/sodipodi-0.dtd" xmlns:xlink="http://www.w3.org/1999/xlink" xmlns:ns1="http://www.inkscape.org/namespaces/inkscape" xmlns:sketch="http://www.bohemiancoding.com/sketch/ns">
  <defs></defs>
  <g transform="matrix(0.9788,0,0,0.9788,-44.1564,23.2369)">
    <g transform="matrix(0.3966,-0.3571,0.2066,0.2294,270.4716,208.7216)">
      <svg width="186.075" height="74" viewBox="-5,55.718,186.075,74" class="thumb">
        <defs>
          <linearGradient x1="0" y1="0.5" x2="1" y2="0.5" id="linearGradientSjyly466v4">
            <stop offset="0%" stop-color="#20bd67"></stop>
            <stop offset="100%" stop-color="#20bd67"></stop>
          </linearGradient>
        </defs>
        <g></g>
        <g></g>
        <g></g>
        <g></g>
        <g></g>
        <g></g>
        <g></g>
        <g></g>
        <g>
          <polygon points="141.476,124.718 0,124.718 34.599,60.718 176.075,60.718 " fill="url('#linearGradientSjyly466v4')" stroke="none" style=""></polygon>
        </g>
      </svg>
    </g>
    <g transform="matrix(0.3966,-0.3571,0.2066,0.2294,306.4716,207.7216)">
      <svg width="186.075" height="74" viewBox="-5,55.718,186.075,74" class="thumb">
        <defs>
          <linearGradient x1="0" y1="0.5" x2="1" y2="0.5" id="linearGradientSjyly466va">
            <stop offset="0%" stop-color="#199450"></stop>
            <stop offset="100%" stop-color="#199450"></stop>
          </linearGradient>
        </defs>
        <g></g>
        <g></g>
        <g></g>
        <g></g>
        <g></g>
        <g></g>
        <g></g>
        <g></g>
        <g>
          <polygon points="141.476,124.718 0,124.718 34.599,60.718 176.075,60.718 " fill="url('#linearGradientSjyly466va')" stroke="none" style=""></polygon>
        </g>
      </svg>
    </g>
    <g transform="matrix(0.3966,-0.3571,0.2066,0.2294,344.4716,206.7216)">
      <svg width="186.075" height="74" viewBox="-5,55.718,186.075,74" class="thumb">
        <defs>
          <linearGradient x1="0" y1="0.5" x2="1" y2="0.5" id="linearGradientSjyly466vg">
            <stop offset="0%" stop-color="#11703c"></stop>
            <stop offset="100%" stop-color="#11703c"></stop>
          </linearGradient>
        </defs>
        <g></g>
        <g></g>
        <g></g>
        <g></g>
        <g></g>
        <g></g>
        <g></g>
        <g></g>
        <g>
          <polygon points="141.476,124.718 0,124.718 34.599,60.718 176.075,60.718 " fill="url('#linearGradientSjyly466vg')" stroke="none" style=""></polygon>
        </g>
      </svg>
    </g>
    <g transform="matrix(6.1401,0,0,6.1401,45.0631,0.6236)">
      <svg width="99.85246087870841" height="91.89999999999999" viewBox="-0.01134247365536556,3.800000000000015,99.85246087870841,91.89999999999999">
        <defs>
          <linearGradient x1="0" y1="0.5" x2="1" y2="0.5" id="linearGradientSjyly466vm">
            <stop offset="0%" stop-color="#199450"></stop>
            <stop offset="100%" stop-color="#199450"></stop>
          </linearGradient>
        </defs>
        <g></g>
        <g></g>
        <g>
          <path fill="url('#linearGradientSjyly466vm')" d="M76.2,90.7c-0.9,0-1.8-0.5-3-1.8c-0.5-0.5-0.9-1-1.3-1.5c-0.6-0.9-0.7-2-0.2-3c0.6-1.2,2-1.8,3.3-1.5  c0.6,0.2,1.1,0.1,1.2,0.1c1.2-0.6,2.4-0.3,3,0.6c0.5,0.8,0.4,1.8-0.2,3c-0.2,0.3-0.3,0.8-0.4,1.2C78.3,89.1,77.8,90.7,76.2,90.7z   M74.2,85c-0.4,0-0.6,0.2-0.7,0.5c-0.1,0.1-0.2,0.5,0.1,0.9c0.3,0.4,0.6,0.8,1,1.2c1,1,1.4,1.1,1.6,1.2c0.2-0.2,0.4-0.9,0.5-1.4  c0.2-0.5,0.3-1.1,0.6-1.6c0.3-0.6,0.3-1,0.2-1.1c0,0-0.2,0.1-0.4,0.2c-0.7,0.3-1.6,0.4-2.7,0.1C74.4,85,74.3,85,74.2,85z M75.9,79.7  c-0.8,0-1.6-0.2-2.3-0.6c-1.2-0.6-2.6-0.8-4.4-0.9c-5.1-0.2-6.9-1.8-7.3-6.7c0-0.1-0.2-0.2-0.7-0.5c-0.6-0.3-1.8-0.9-1.6-2.4  c-1-0.8-1.3-1.8-1.3-2.9l-2.3,2C55.6,68,55.3,68,55,68c-0.3-0.1-0.6-0.3-0.7-0.6c-1.6-3.9-5-5.4-8.1-6.4c-0.7-0.2-1.4,0-2.1,0.2  c-0.3,0.1-0.6,0.2-1,0.3c-0.8,0.2-1.5,0.3-2.3,0.4c-3.4,0.6-6.5,1.2-8.8,3.9c-0.9,1.1-2.3,1.7-3.8,1.7l-0.2,0c-0.6,0-1.2,0-1.7,0  c-2.4,0-4.1,0.4-5.2,2.7c-0.6,1.1-2.1,1.1-2.6,1.1c-2.1,0-5-0.8-6.2-1.7c-0.3-0.2-0.5-0.7-0.4-1.1c1.4-5.8-1.3-10-4.2-14.4  c-0.5-0.7-0.9-1.4-1.4-2.1c-0.4-0.6-0.5-1.4-0.2-2.1c0.2-0.4,0.4-0.8,0.8-1c-0.1-0.3-0.3-0.7-0.6-1.1c-0.4-0.6-0.8-1.2-1-2  c-1.2-5.8,1-8.9,7.8-11.3c0.6-0.2,1.1-0.4,1.7-0.6c3.1-1,6-1.9,7.8-4.7l0.2-0.4c0.4-0.6,0.6-0.8,0.4-1.5c-0.3-1,0.7-1.9,3.9-4.2  c0.7-0.5,1.4-1,1.7-1.3c0.5-0.6,3.8-4.3,8.8-4.3c0.9,0,1.7,0.1,2.6,0.3c0.1-1.4,0.6-2.7,1.5-3.7c1.2-1.4,3-2.2,5-2.3  c0.3,0,0.4-0.1,0.4-0.1c0.9-0.9,2.5-1.4,4-1.2c0.9,0.1,1.7,0.2,2.5,0.3c1.1,0.1,2.3,0.3,3.5,0.4c0.9,0.1,1.6,0.7,1.9,1.5  c0.3,0.8,0.2,1.7-0.4,2.4c-0.3,0.3-0.5,0.7-0.8,1.1c-0.7,1.2-0.4,2.8,0.7,3.7l0.9,0.7c1.9,1.5,3.7,3,5.8,4c0.1,0.1,0.3,0.1,0.4,0.2  c0.3,0.2,0.6,0.3,0.8,0.3c0,0,0.1,0,0.2-0.1l0.5-0.5c0.6-1.2,0.8-2.6,1.1-4.1c0.1-0.3,0.1-0.7,0.2-1c0.1-0.8,0.2-1.6,0.3-2.4  c0.3-2.8,0.7-5.8,3-8.2C72.1,9.1,72.4,9,72.7,9c0.3,0,0.5,0.1,0.7,0.3L74,9.9c0.1,0.1,0.2,0.3,0.3,0.5c0.2,0.8,0.5,1.6,0.8,2.4  c0.6,1.4,1.2,2.9,1.2,4.7c0,0,0,0,0,0.1c3.6,1.2,3.7,4.1,3.8,6.4c0,1.2,0.1,2.3,0.5,3.1c0.3,0.6,0.5,1.3,0.6,1.8  c0.4,1.4,0.6,2,2,2.2c1.2,0.1,2.7,1.4,3,2.6c0.8,3,1.9,4.9,3.8,6.3c0.6,0.4,0.6,1,0.6,1.5c0,0.2,0,0.6,0.1,0.7c0,0,0.1,0.1,0.1,0.1  l0.6,0.6c0,0,0.1,0.1,0.1,0.2c0.3,0.5,0.6,0.9,1,1.4c1.2,1.6,2.6,3.3,2.3,5.7l-0.1,0.7c-0.5,5.1-1.1,10.4-4.6,15  c-2.2,2.9-4.3,6-5.3,9.7c-0.5,1.9-1.4,2.3-2.1,2.3l0,0c-0.2,0-0.3,0-0.5-0.1c-1.4-0.5-2.3-0.1-3.8,1C77.8,79.4,76.9,79.7,75.9,79.7z   M61.5,68.9c0.1,0.1,0.3,0.2,0.5,0.3c0.6,0.3,1.7,0.8,1.8,2.1c0.3,3.9,1.2,4.8,5.4,4.9c1.7,0.1,3.7,0.2,5.3,1.1c1,0.5,2.1,0.5,3-0.2  c1.1-0.8,2.3-1.6,3.9-1.6c0.5,0,0.9,0.1,1.4,0.2c0.1-0.1,0.2-0.4,0.3-0.8c1.1-4,3.4-7.3,5.7-10.3c3.1-4.1,3.6-8.9,4.2-14L93,50  c0.2-1.6-0.8-2.9-1.9-4.3c-0.4-0.5-0.7-0.9-1-1.4l-0.5-0.5c-0.8-0.6-0.8-1.6-0.8-2.1c0-0.1,0-0.1,0-0.2c-2.8-2.1-3.8-4.9-4.4-7.2  c-0.1-0.4-0.9-1.1-1.3-1.1c-2.8-0.3-3.3-2.3-3.7-3.7c-0.1-0.5-0.3-1-0.5-1.4c-0.6-1.2-0.7-2.6-0.7-4c-0.1-2.5-0.2-4-2.7-4.6  c-1.1-0.3-1.1-1.9-1.1-1.9c0-1.3-0.5-2.6-1-3.9c-0.2-0.6-0.5-1.2-0.7-1.8c-1.1,1.7-1.4,3.8-1.7,6c-0.1,0.8-0.2,1.7-0.4,2.5  c-0.1,0.3-0.1,0.7-0.2,1c-0.3,1.6-0.6,3.2-1.4,4.8c0,0.1-0.1,0.2-0.2,0.3l-0.6,0.6c0,0-0.1,0.1-0.1,0.1c-0.5,0.4-1,0.5-1.5,0.5  c-0.7,0-1.3-0.3-1.8-0.6c-0.1-0.1-0.2-0.1-0.4-0.2c-2.3-1.1-4.3-2.7-6.2-4.2l-0.9-0.7c-1.9-1.5-2.4-4.3-1.2-6.3  c0.3-0.5,0.6-0.9,1-1.3c0.1-0.1,0.1-0.3,0.1-0.4c0-0.1-0.1-0.2-0.3-0.3c-1.3-0.2-2.4-0.3-3.5-0.4c-0.8-0.1-1.7-0.2-2.5-0.3  c-0.9-0.1-1.8,0.1-2.4,0.6c-0.4,0.4-0.9,0.6-1.6,0.6c-1.5,0.1-2.8,0.6-3.6,1.6c-0.8,1-1.2,2.3-1,3.7c0,0.4-0.1,0.7-0.4,0.9  c-0.3,0.2-0.7,0.3-1,0.1c-1.1-0.4-2.2-0.7-3.2-0.7c-4.3,0-7.2,3.6-7.3,3.6c0,0-0.1,0.1-0.1,0.1c-0.4,0.4-1.1,0.9-1.9,1.5  c-0.9,0.7-2.5,1.8-3,2.4c0.2,1.3-0.3,2.1-0.7,2.8l-0.2,0.3c-2.2,3.5-5.8,4.6-8.9,5.6c-0.6,0.2-1.1,0.4-1.7,0.5c-5.9,2-7.4,4.2-6.5,9  c0.1,0.4,0.4,0.8,0.7,1.3c0.5,0.7,1.1,1.6,1,2.8c0,0.4-0.3,0.8-0.7,0.9c-0.2,0-0.2,0.2-0.2,0.2c0,0.1-0.1,0.2,0,0.3  C8.5,51.6,9,52.3,9.4,53c2.9,4.4,5.9,9,4.6,15.2c1.1,0.5,3.1,1,4.5,1c0.5,0,0.7-0.1,0.8-0.1c1.7-3.2,4.5-3.6,6.9-3.6  c0.5,0,1.1,0,1.7,0l0.2,0c1.2,0,1.9-0.6,2.2-1c2.7-3.3,6.4-4,10-4.6c0.8-0.1,1.5-0.3,2.3-0.4c0.3-0.1,0.5-0.1,0.8-0.2  c0.6-0.2,1.3-0.4,2-0.4c0.4,0,0.8,0.1,1.2,0.2c3.2,1,6.7,2.5,8.8,6.3l2.9-2.5c0.3-0.3,0.7-0.3,1-0.2c0.4,0.1,0.6,0.5,0.6,0.9  c0,0.4,0,0.8,0,1.2c0,1.4,0.1,1.9,0.7,2.3C61.4,67.5,61.7,68.2,61.5,68.9C61.5,68.9,61.5,68.9,61.5,68.9z" stroke="none" style=""></path>
        </g>
      </svg>
    </g>
    <g transform="matrix(0.5,0,0,0.5,222.65,237.55)">
      <svg width="525.4000000000001" height="181" style="overflow: visible;">
        <defs>
          <linearGradient x1="0" y1="0.5" x2="1" y2="0.5" id="linearGradientSjyly466vy">
            <stop offset="0%" stop-color="#20bd67"></stop>
            <stop offset="100%" stop-color="#20bd67"></stop>
          </linearGradient>
        </defs>
        <g transform="matrix(1,0,0,1,0,90.75)">
          <path d="M 31.3 1.2Q 23 1.2  15.25-1.05Q 7.5-3.3  2.8-6.9L 2.8-6.9L 8.3-19.1Q 12.8-15.8  19-13.8Q 25.2-11.8  31.4-11.8L 31.4-11.8Q 38.3-11.8  41.6-13.85Q 44.9-15.9  44.9-19.3L 44.9-19.3Q 44.9-21.8  42.95-23.45Q 41-25.1  37.95-26.1Q 34.9-27.1  29.7-28.3L 29.7-28.3Q 21.7-30.2  16.6-32.1Q 11.5-34  7.85-38.2Q 4.2-42.4  4.2-49.4L 4.2-49.4Q 4.2-55.5  7.5-60.45Q 10.8-65.4  17.45-68.3Q 24.1-71.2  33.7-71.2L 33.7-71.2Q 40.4-71.2  46.8-69.6Q 53.2-68  58-65L 58-65L 53-52.7Q 43.3-58.2  33.6-58.2L 33.6-58.2Q 26.8-58.2  23.55-56Q 20.3-53.8  20.3-50.2L 20.3-50.2Q 20.3-46.6  24.05-44.85Q 27.8-43.1  35.5-41.4L 35.5-41.4Q 43.5-39.5  48.6-37.6Q 53.7-35.7  57.35-31.6Q 61-27.5  61-20.5L 61-20.5Q 61-14.5  57.65-9.55Q 54.3-4.6  47.6-1.7Q 40.9 1.2  31.3 1.2L 31.3 1.2ZM 120 0L 97.6-27.5L 88.19999999999999-17.7L 88.19999999999999 0L 72.1 0L 72.1-70L 88.19999999999999-70L 88.19999999999999-37.3L 119.19999999999999-70L 137.2-70L 108.19999999999999-38.8L 138.89999999999998 0L 120 0ZM 197.40000000000003 1.2Q 189.10000000000002 1.2  181.35000000000002-1.05Q 173.60000000000002-3.3  168.90000000000003-6.9L 168.90000000000003-6.9L 174.40000000000003-19.1Q 178.90000000000003-15.8  185.10000000000002-13.8Q 191.3-11.8  197.50000000000003-11.8L 197.50000000000003-11.8Q 204.40000000000003-11.8  207.70000000000002-13.85Q 211.00000000000003-15.9  211.00000000000003-19.3L 211.00000000000003-19.3Q 211.00000000000003-21.8  209.05-23.45Q 207.10000000000002-25.1  204.05-26.1Q 201.00000000000003-27.1  195.8-28.3L 195.8-28.3Q 187.8-30.2  182.70000000000002-32.1Q 177.60000000000002-34  173.95000000000002-38.2Q 170.3-42.4  170.3-49.4L 170.3-49.4Q 170.3-55.5  173.60000000000002-60.45Q 176.90000000000003-65.4  183.55-68.3Q 190.20000000000002-71.2  199.8-71.2L 199.8-71.2Q 206.50000000000003-71.2  212.90000000000003-69.6Q 219.3-68  224.10000000000002-65L 224.10000000000002-65L 219.10000000000002-52.7Q 209.40000000000003-58.2  199.70000000000002-58.2L 199.70000000000002-58.2Q 192.90000000000003-58.2  189.65000000000003-56Q 186.40000000000003-53.8  186.40000000000003-50.2L 186.40000000000003-50.2Q 186.40000000000003-46.6  190.15000000000003-44.85Q 193.90000000000003-43.1  201.60000000000002-41.4L 201.60000000000002-41.4Q 209.60000000000002-39.5  214.70000000000002-37.6Q 219.8-35.7  223.45000000000002-31.6Q 227.10000000000002-27.5  227.10000000000002-20.5L 227.10000000000002-20.5Q 227.10000000000002-14.5  223.75000000000003-9.55Q 220.40000000000003-4.6  213.70000000000002-1.7Q 207.00000000000003 1.2  197.40000000000003 1.2L 197.40000000000003 1.2ZM 272.1000000000001 1.2Q 261.2000000000001 1.2  252.4500000000001-3.5Q 243.7000000000001-8.2  238.75000000000009-16.45Q 233.8000000000001-24.7  233.8000000000001-35L 233.8000000000001-35Q 233.8000000000001-45.3  238.75000000000009-53.55Q 243.7000000000001-61.8  252.4500000000001-66.5Q 261.2000000000001-71.2  272.1000000000001-71.2L 272.1000000000001-71.2Q 283.0000000000001-71.2  291.7000000000001-66.5Q 300.4000000000001-61.8  305.4000000000001-53.55Q 310.4000000000001-45.3  310.4000000000001-35L 310.4000000000001-35Q 310.4000000000001-24.7  305.4000000000001-16.45Q 300.4000000000001-8.2  291.7000000000001-3.5Q 283.0000000000001 1.2  272.1000000000001 1.2L 272.1000000000001 1.2ZM 272.1000000000001-12.6Q 278.30000000000007-12.6  283.30000000000007-15.45Q 288.30000000000007-18.3  291.1500000000001-23.4Q 294.0000000000001-28.5  294.0000000000001-35L 294.0000000000001-35Q 294.0000000000001-41.5  291.1500000000001-46.6Q 288.30000000000007-51.7  283.30000000000007-54.55Q 278.30000000000007-57.4  272.1000000000001-57.4L 272.1000000000001-57.4Q 265.9000000000001-57.4  260.9000000000001-54.55Q 255.9000000000001-51.7  253.0500000000001-46.6Q 250.2000000000001-41.5  250.2000000000001-35L 250.2000000000001-35Q 250.2000000000001-28.5  253.0500000000001-23.4Q 255.9000000000001-18.3  260.9000000000001-15.45Q 265.9000000000001-12.6  272.1000000000001-12.6L 272.1000000000001-12.6ZM 322.6000000000001 0L 322.6000000000001-70L 338.80000000000007-70L 338.80000000000007-13.2L 373.9000000000001-13.2L 373.9000000000001 0L 322.6000000000001 0ZM 435.9000000000001 0L 429.70000000000005-15L 397.20000000000005-15L 391.00000000000006 0L 374.4000000000001 0L 405.6000000000001-70L 421.6000000000001-70L 452.9000000000001 0L 435.9000000000001 0ZM 402.4000000000001-27.3L 424.6000000000001-27.3L 413.50000000000006-54.1L 402.4000000000001-27.3ZM 522.1999999999999 0L 504.79999999999995 0L 491.29999999999995-19.5L 490.5-19.5L 476.4-19.5L 476.4 0L 460.2 0L 460.2-70L 490.5-70Q 499.79999999999995-70  506.65-66.9Q 513.5-63.8  517.1999999999999-58.1Q 520.9-52.4  520.9-44.6L 520.9-44.6Q 520.9-36.8  517.15-31.15Q 513.4-25.5  506.5-22.5L 506.5-22.5L 522.1999999999999 0ZM 504.5-44.6Q 504.5-50.5  500.7-53.65Q 496.9-56.8  489.59999999999997-56.8L 489.59999999999997-56.8L 476.4-56.8L 476.4-32.4L 489.59999999999997-32.4Q 496.9-32.4  500.7-35.6Q 504.5-38.8  504.5-44.6L 504.5-44.6Z" data-textpath="SK SOLAR" data-text-anchor="middle" data-font-size="100" data-letterspacing="0" data-side="left" data-offset="0.5" data-dx="0" data-dy="0" data-xmlspace="preserve" data-href="" data-font="Montserrat" data-font-src="/Content/clientfonts/montserrat-bold.woff" data-font-scale="contain" transform="translate(0,0)" data-x="0" data-y="0" fill="url('#linearGradientSjyly466vy')"></path>
        </g>
      </svg>
    </g>
    <g transform="matrix(0.4112,0,0,0.4112,317.9825,291.5968)">
      <svg width="150.8" height="181" style="overflow: visible;">
        <defs>
          <linearGradient x1="0" y1="0.5" x2="1" y2="0.5" id="linearGradientSjyly466v11">
            <stop offset="0%" stop-color="#199450"></stop>
            <stop offset="100%" stop-color="#199450"></stop>
          </linearGradient>
        </defs>
        <g transform="matrix(1,0,0,1,0,90.75)">
          <path d="M 42.2 1.2Q 31.3 1.2  22.55-3.5Q 13.8-8.2  8.85-16.45Q 3.9-24.7  3.9-35L 3.9-35Q 3.9-45.3  8.85-53.55Q 13.8-61.8  22.55-66.5Q 31.3-71.2  42.2-71.2L 42.2-71.2Q 53.1-71.2  61.8-66.5Q 70.5-61.8  75.5-53.55Q 80.5-45.3  80.5-35L 80.5-35Q 80.5-24.7  75.5-16.45Q 70.5-8.2  61.8-3.5Q 53.1 1.2  42.2 1.2L 42.2 1.2ZM 42.2-12.6Q 48.4-12.6  53.4-15.45Q 58.4-18.3  61.25-23.4Q 64.1-28.5  64.1-35L 64.1-35Q 64.1-41.5  61.25-46.6Q 58.4-51.7  53.4-54.55Q 48.4-57.4  42.2-57.4L 42.2-57.4Q 36-57.4  31-54.55Q 26-51.7  23.15-46.6Q 20.3-41.5  20.3-35L 20.3-35Q 20.3-28.5  23.15-23.4Q 26-18.3  31-15.45Q 36-12.6  42.2-12.6L 42.2-12.6ZM 108.90000000000002-13.2L 148.70000000000002-13.2L 148.70000000000002 0L 87.50000000000001 0L 87.50000000000001-10.5L 125.90000000000002-56.8L 88.30000000000001-56.8L 88.30000000000001-70L 147.20000000000002-70L 147.20000000000002-59.5L 108.90000000000002-13.2Z" data-textpath="OZ" data-text-anchor="middle" data-font-size="100" data-letterspacing="0" data-side="left" data-offset="0.5" data-dx="0" data-dy="0" data-xmlspace="preserve" data-href="" data-font="Montserrat" data-font-src="/Content/clientfonts/montserrat-bold.woff" data-font-scale="contain" transform="translate(0,0)" data-x="0" data-y="0" fill="url('#linearGradientSjyly466v11')"></path>
        </g>
      </svg>
    </g>
  </g>
</svg>